<?xml version="1.0" standalone="no"?><!DOCTYPE svg PUBLIC "-//W3C//DTD SVG 1.1//EN" "http://www.w3.org/Graphics/SVG/1.1/DTD/svg11.dtd"><svg class="icon" height="512" viewBox="0 0 1024 1024" version="1.1" xmlns="http://www.w3.org/2000/svg"><path d="M511.751 922.405099c-73.725928 0-133.707869-59.993941-133.707869-133.729869 0-2.777997 0.101-5.574995 0.292-8.393992H219.528286c-15.574985 0-29.926971-9.092991-36.566965-23.175977-6.642994-14.090986-4.537996-30.94997 5.363995-42.969958l27.036974-32.792968a180.275824 180.275824 0 0 0 21.426979-32.516969c12.809987-25.033976 19.313981-52.232949 19.313981-80.822921v-130.129873c0-55.676946 17.660983-108.628894 51.08195-153.14685 29.497971-39.286962 70.374931-69.698932 116.171887-86.691915v-8.027993c0-48.750952 39.658961-88.410914 88.413913-88.410913 48.747952 0 88.406914 39.659961 88.406914 88.410913v8.030993c45.794955 16.989983 86.667915 47.403954 116.160886 86.692915 33.413967 44.514957 51.07895 97.470905 51.078951 153.14385v130.132873c0 28.450972 6.514994 55.671946 19.381981 80.919921 5.836994 11.400989 13.029987 22.324978 21.365979 32.439969l23.899976 28.949971a40.386961 40.386961 0 0 1 12.808988 29.536971c0 22.112978-17.851983 40.136961-39.897961 40.427961a18.463982 18.463982 0 0 1-1.438999 0H645.19987c0.191 2.817997 0.289 5.614995 0.289 8.393992 0 73.735928-59.995941 133.729869-133.73787 133.729869z m-52.143949-142.123861a50.553951 50.553951 0 0 0-0.699999 8.393992c0 29.146972 23.711977 52.863948 52.857948 52.863948 29.147972 0 52.856948-23.715977 52.856949-52.863948 0-2.814997-0.23-5.615995-0.699-8.393992H459.607051z m262.740744-80.856921a251.362755 251.362755 0 0 1-7.564993-13.733987c-18.738982-36.728964-28.230972-76.321925-28.230972-117.687885l0.004-130.129873c0-96.373906-78.407923-174.776829-174.78383-174.776829-96.387906 0-174.802829 78.402923-174.802829 174.776829v130.132873c0 41.529959-9.499991 81.118921-28.230973 117.684885a261.390745 261.390745 0 0 1-7.551992 13.733987h421.161589z" fill="#040000" /></svg>