<?xml version="1.0"?>
<svg width="768" height="768" xmlns="http://www.w3.org/2000/svg" xmlns:svg="http://www.w3.org/2000/svg">
    
    <title/>
    <g class="layer">

    <title>Layer 1</title>

    <g id="icomoon-ignore"/>
        <path d="m607.5,607.5l0,-351l-447,0l0,351l447,0zm-96,-576l64.5,0l0,64.5l31.5,0c34.5,0 64.5,30 64.5,64.5l0,447c0,34.5 -30,64.5 -64.5,64.5l-447,0c-36,0 -64.5,-30 -64.5,-64.5l0,-447c0,-34.5 28.5,-64.5 64.5,-64.5l31.5,0l0,-64.5l64.5,0l0,64.5l255,0l0,-64.5zm33,352.5l0,160.5l-160.5,0l0,-160.5l160.5,0z" id="svg_95"/>
    </g>

</svg>