<!-- Generated by IcoMoon.io -->
<svg version="1.1" xmlns="http://www.w3.org/2000/svg" width="768" height="768" viewBox="0 0 768 768">
<title></title>
<g id="icomoon-ignore">
    <line stroke-width="1" x1="16" y1="0" x2="16" y2="768" stroke="#449FDB" opacity="0.3"></line>
    <line stroke-width="1" x1="32" y1="0" x2="32" y2="768" stroke="#449FDB" opacity="1"></line>
    <line stroke-width="1" x1="48" y1="0" x2="48" y2="768" stroke="#449FDB" opacity="0.3"></line>
    <line stroke-width="1" x1="64" y1="0" x2="64" y2="768" stroke="#449FDB" opacity="1"></line>
    <line stroke-width="1" x1="80" y1="0" x2="80" y2="768" stroke="#449FDB" opacity="0.3"></line>
    <line stroke-width="1" x1="96" y1="0" x2="96" y2="768" stroke="#449FDB" opacity="1"></line>
    <line stroke-width="1" x1="112" y1="0" x2="112" y2="768" stroke="#449FDB" opacity="0.3"></line>
    <line stroke-width="1" x1="128" y1="0" x2="128" y2="768" stroke="#449FDB" opacity="1"></line>
    <line stroke-width="1" x1="144" y1="0" x2="144" y2="768" stroke="#449FDB" opacity="0.3"></line>
    <line stroke-width="1" x1="160" y1="0" x2="160" y2="768" stroke="#449FDB" opacity="1"></line>
    <line stroke-width="1" x1="176" y1="0" x2="176" y2="768" stroke="#449FDB" opacity="0.3"></line>
    <line stroke-width="1" x1="192" y1="0" x2="192" y2="768" stroke="#449FDB" opacity="1"></line>
    <line stroke-width="1" x1="208" y1="0" x2="208" y2="768" stroke="#449FDB" opacity="0.3"></line>
    <line stroke-width="1" x1="224" y1="0" x2="224" y2="768" stroke="#449FDB" opacity="1"></line>
    <line stroke-width="1" x1="240" y1="0" x2="240" y2="768" stroke="#449FDB" opacity="0.3"></line>
    <line stroke-width="1" x1="256" y1="0" x2="256" y2="768" stroke="#449FDB" opacity="1"></line>
    <line stroke-width="1" x1="272" y1="0" x2="272" y2="768" stroke="#449FDB" opacity="0.3"></line>
    <line stroke-width="1" x1="288" y1="0" x2="288" y2="768" stroke="#449FDB" opacity="1"></line>
    <line stroke-width="1" x1="304" y1="0" x2="304" y2="768" stroke="#449FDB" opacity="0.3"></line>
    <line stroke-width="1" x1="320" y1="0" x2="320" y2="768" stroke="#449FDB" opacity="1"></line>
    <line stroke-width="1" x1="336" y1="0" x2="336" y2="768" stroke="#449FDB" opacity="0.3"></line>
    <line stroke-width="1" x1="352" y1="0" x2="352" y2="768" stroke="#449FDB" opacity="1"></line>
    <line stroke-width="1" x1="368" y1="0" x2="368" y2="768" stroke="#449FDB" opacity="0.3"></line>
    <line stroke-width="1" x1="384" y1="0" x2="384" y2="768" stroke="#449FDB" opacity="1"></line>
    <line stroke-width="1" x1="400" y1="0" x2="400" y2="768" stroke="#449FDB" opacity="0.3"></line>
    <line stroke-width="1" x1="416" y1="0" x2="416" y2="768" stroke="#449FDB" opacity="1"></line>
    <line stroke-width="1" x1="432" y1="0" x2="432" y2="768" stroke="#449FDB" opacity="0.3"></line>
    <line stroke-width="1" x1="448" y1="0" x2="448" y2="768" stroke="#449FDB" opacity="1"></line>
    <line stroke-width="1" x1="464" y1="0" x2="464" y2="768" stroke="#449FDB" opacity="0.3"></line>
    <line stroke-width="1" x1="480" y1="0" x2="480" y2="768" stroke="#449FDB" opacity="1"></line>
    <line stroke-width="1" x1="496" y1="0" x2="496" y2="768" stroke="#449FDB" opacity="0.3"></line>
    <line stroke-width="1" x1="512" y1="0" x2="512" y2="768" stroke="#449FDB" opacity="1"></line>
    <line stroke-width="1" x1="528" y1="0" x2="528" y2="768" stroke="#449FDB" opacity="0.3"></line>
    <line stroke-width="1" x1="544" y1="0" x2="544" y2="768" stroke="#449FDB" opacity="1"></line>
    <line stroke-width="1" x1="560" y1="0" x2="560" y2="768" stroke="#449FDB" opacity="0.3"></line>
    <line stroke-width="1" x1="576" y1="0" x2="576" y2="768" stroke="#449FDB" opacity="1"></line>
    <line stroke-width="1" x1="592" y1="0" x2="592" y2="768" stroke="#449FDB" opacity="0.3"></line>
    <line stroke-width="1" x1="608" y1="0" x2="608" y2="768" stroke="#449FDB" opacity="1"></line>
    <line stroke-width="1" x1="624" y1="0" x2="624" y2="768" stroke="#449FDB" opacity="0.3"></line>
    <line stroke-width="1" x1="640" y1="0" x2="640" y2="768" stroke="#449FDB" opacity="1"></line>
    <line stroke-width="1" x1="656" y1="0" x2="656" y2="768" stroke="#449FDB" opacity="0.3"></line>
    <line stroke-width="1" x1="672" y1="0" x2="672" y2="768" stroke="#449FDB" opacity="1"></line>
    <line stroke-width="1" x1="688" y1="0" x2="688" y2="768" stroke="#449FDB" opacity="0.3"></line>
    <line stroke-width="1" x1="704" y1="0" x2="704" y2="768" stroke="#449FDB" opacity="1"></line>
    <line stroke-width="1" x1="720" y1="0" x2="720" y2="768" stroke="#449FDB" opacity="0.3"></line>
    <line stroke-width="1" x1="736" y1="0" x2="736" y2="768" stroke="#449FDB" opacity="1"></line>
    <line stroke-width="1" x1="752" y1="0" x2="752" y2="768" stroke="#449FDB" opacity="0.3"></line>
    <line stroke-width="1" x1="0" y1="16" x2="768" y2="16" stroke="#449FDB" opacity="0.3"></line>
    <line stroke-width="1" x1="0" y1="32" x2="768" y2="32" stroke="#449FDB" opacity="1"></line>
    <line stroke-width="1" x1="0" y1="48" x2="768" y2="48" stroke="#449FDB" opacity="0.3"></line>
    <line stroke-width="1" x1="0" y1="64" x2="768" y2="64" stroke="#449FDB" opacity="1"></line>
    <line stroke-width="1" x1="0" y1="80" x2="768" y2="80" stroke="#449FDB" opacity="0.3"></line>
    <line stroke-width="1" x1="0" y1="96" x2="768" y2="96" stroke="#449FDB" opacity="1"></line>
    <line stroke-width="1" x1="0" y1="112" x2="768" y2="112" stroke="#449FDB" opacity="0.3"></line>
    <line stroke-width="1" x1="0" y1="128" x2="768" y2="128" stroke="#449FDB" opacity="1"></line>
    <line stroke-width="1" x1="0" y1="144" x2="768" y2="144" stroke="#449FDB" opacity="0.3"></line>
    <line stroke-width="1" x1="0" y1="160" x2="768" y2="160" stroke="#449FDB" opacity="1"></line>
    <line stroke-width="1" x1="0" y1="176" x2="768" y2="176" stroke="#449FDB" opacity="0.3"></line>
    <line stroke-width="1" x1="0" y1="192" x2="768" y2="192" stroke="#449FDB" opacity="1"></line>
    <line stroke-width="1" x1="0" y1="208" x2="768" y2="208" stroke="#449FDB" opacity="0.3"></line>
    <line stroke-width="1" x1="0" y1="224" x2="768" y2="224" stroke="#449FDB" opacity="1"></line>
    <line stroke-width="1" x1="0" y1="240" x2="768" y2="240" stroke="#449FDB" opacity="0.3"></line>
    <line stroke-width="1" x1="0" y1="256" x2="768" y2="256" stroke="#449FDB" opacity="1"></line>
    <line stroke-width="1" x1="0" y1="272" x2="768" y2="272" stroke="#449FDB" opacity="0.3"></line>
    <line stroke-width="1" x1="0" y1="288" x2="768" y2="288" stroke="#449FDB" opacity="1"></line>
    <line stroke-width="1" x1="0" y1="304" x2="768" y2="304" stroke="#449FDB" opacity="0.3"></line>
    <line stroke-width="1" x1="0" y1="320" x2="768" y2="320" stroke="#449FDB" opacity="1"></line>
    <line stroke-width="1" x1="0" y1="336" x2="768" y2="336" stroke="#449FDB" opacity="0.3"></line>
    <line stroke-width="1" x1="0" y1="352" x2="768" y2="352" stroke="#449FDB" opacity="1"></line>
    <line stroke-width="1" x1="0" y1="368" x2="768" y2="368" stroke="#449FDB" opacity="0.3"></line>
    <line stroke-width="1" x1="0" y1="384" x2="768" y2="384" stroke="#449FDB" opacity="1"></line>
    <line stroke-width="1" x1="0" y1="400" x2="768" y2="400" stroke="#449FDB" opacity="0.3"></line>
    <line stroke-width="1" x1="0" y1="416" x2="768" y2="416" stroke="#449FDB" opacity="1"></line>
    <line stroke-width="1" x1="0" y1="432" x2="768" y2="432" stroke="#449FDB" opacity="0.3"></line>
    <line stroke-width="1" x1="0" y1="448" x2="768" y2="448" stroke="#449FDB" opacity="1"></line>
    <line stroke-width="1" x1="0" y1="464" x2="768" y2="464" stroke="#449FDB" opacity="0.3"></line>
    <line stroke-width="1" x1="0" y1="480" x2="768" y2="480" stroke="#449FDB" opacity="1"></line>
    <line stroke-width="1" x1="0" y1="496" x2="768" y2="496" stroke="#449FDB" opacity="0.3"></line>
    <line stroke-width="1" x1="0" y1="512" x2="768" y2="512" stroke="#449FDB" opacity="1"></line>
    <line stroke-width="1" x1="0" y1="528" x2="768" y2="528" stroke="#449FDB" opacity="0.3"></line>
    <line stroke-width="1" x1="0" y1="544" x2="768" y2="544" stroke="#449FDB" opacity="1"></line>
    <line stroke-width="1" x1="0" y1="560" x2="768" y2="560" stroke="#449FDB" opacity="0.3"></line>
    <line stroke-width="1" x1="0" y1="576" x2="768" y2="576" stroke="#449FDB" opacity="1"></line>
    <line stroke-width="1" x1="0" y1="592" x2="768" y2="592" stroke="#449FDB" opacity="0.3"></line>
    <line stroke-width="1" x1="0" y1="608" x2="768" y2="608" stroke="#449FDB" opacity="1"></line>
    <line stroke-width="1" x1="0" y1="624" x2="768" y2="624" stroke="#449FDB" opacity="0.3"></line>
    <line stroke-width="1" x1="0" y1="640" x2="768" y2="640" stroke="#449FDB" opacity="1"></line>
    <line stroke-width="1" x1="0" y1="656" x2="768" y2="656" stroke="#449FDB" opacity="0.3"></line>
    <line stroke-width="1" x1="0" y1="672" x2="768" y2="672" stroke="#449FDB" opacity="1"></line>
    <line stroke-width="1" x1="0" y1="688" x2="768" y2="688" stroke="#449FDB" opacity="0.3"></line>
    <line stroke-width="1" x1="0" y1="704" x2="768" y2="704" stroke="#449FDB" opacity="1"></line>
    <line stroke-width="1" x1="0" y1="720" x2="768" y2="720" stroke="#449FDB" opacity="0.3"></line>
    <line stroke-width="1" x1="0" y1="736" x2="768" y2="736" stroke="#449FDB" opacity="1"></line>
    <line stroke-width="1" x1="0" y1="752" x2="768" y2="752" stroke="#449FDB" opacity="0.3"></line>
</g>
<path d="M384 63.999c-176.731 0-320.001 143.27-320.001 320.001s143.27 320.001 320.001 320.001 320.001-143.269 320.001-320.001-143.269-320.001-320.001-320.001zM664 384c0 41.395-8.993 80.69-25.116 116.046 11.647-112.132-14.87-181.791-16.268-185.356-3.548-9.045-13.082-14.234-22.601-12.299-26.412 5.367-53.554-2.79-72.587-21.822-15.111-15.109-23.432-35.197-23.432-56.568s8.321-41.458 23.432-56.568c5.106-5.106 10.792-9.429 16.961-12.95 72.312 50.627 119.608 134.543 119.608 229.517zM264 130.96v24.755l-68.284 68.286h-41.505c27.757-39.792 65.581-72.037 109.79-93.037zM252.943 466.111l-68.944-34.473v-87.638h52.028c19.327 17.747 80.679 69.488 147.974 78.618v33.779l-120 135v-107.396c0-7.576-4.281-14.5-11.057-17.887zM384 664c-39.35 0-76.794-8.133-110.767-22.782l145.718-163.93c3.253-3.661 5.050-8.389 5.050-13.287v-60c0-11.048-8.954-20.001-20.001-20.001-70.618 0-145.128-73.414-145.858-74.14-3.75-3.752-8.838-5.858-14.14-5.858h-80.001c-11.046 0-20.001 8.955-20.001 20.001v120c0 7.576 4.281 14.5 11.056 17.887l68.945 34.473v117.427c-72.532-50.598-120-134.646-120-229.791 0-42.946 9.683-83.63 26.963-120h73.040c5.304 0 10.391-2.108 14.142-5.858l80.001-80.001c3.75-3.752 5.858-8.838 5.858-14.142v-48.382c25.351-7.547 52.198-11.618 80.001-11.618 44.002 0 85.627 10.163 122.677 28.251-2.589 2.189-5.109 4.477-7.529 6.897-22.666 22.665-35.148 52.799-35.148 84.852s12.482 62.187 35.148 84.852c22.771 22.77 53.26 35.166 84.773 35.163 1.978 0 3.964-0.051 5.947-0.147 8.633 32.377 24.219 116.661-5.253 232.708-0.277 1.089-0.435 2.181-0.526 3.264-50.827 51.924-121.688 84.159-200.090 84.159z"></path>
</svg>
