<!-- Generated by IcoMoon.io -->
<svg version="1.1" xmlns="http://www.w3.org/2000/svg" width="24" height="24" viewBox="0 0 24 24">
<title>menu</title>
<path d="M3 5h18c0.276 0 0.512 0.098 0.707 0.293s0.293 0.431 0.293 0.707c0 0.276-0.098 0.512-0.293 0.707s-0.431 0.293-0.707 0.293h-18c-0.276 0-0.512-0.098-0.707-0.293s-0.293-0.431-0.293-0.707c0-0.276 0.098-0.512 0.293-0.707s0.431-0.293 0.707-0.293v0zM3 17h18c0.276 0 0.512 0.098 0.707 0.293s0.293 0.431 0.293 0.707c0 0.276-0.098 0.512-0.293 0.707s-0.431 0.293-0.707 0.293h-18c-0.276 0-0.512-0.098-0.707-0.293s-0.293-0.431-0.293-0.707c0-0.276 0.098-0.512 0.293-0.707s0.431-0.293 0.707-0.293v0zM3 11h18c0.276 0 0.512 0.098 0.707 0.293s0.293 0.431 0.293 0.707c0 0.276-0.098 0.512-0.293 0.707s-0.431 0.293-0.707 0.293h-18c-0.276 0-0.512-0.098-0.707-0.293s-0.293-0.431-0.293-0.707c0-0.276 0.098-0.512 0.293-0.707s0.431-0.293 0.707-0.293v0z"></path>
</svg>
