<?xml version="1.0" encoding="utf-8"?>
<!-- Generator: Adobe Illustrator 15.0.0, SVG Export Plug-In . SVG Version: 6.00 Build 0)  -->
<!DOCTYPE svg PUBLIC "-//W3C//DTD SVG 1.1//EN" "http://www.w3.org/Graphics/SVG/1.1/DTD/svg11.dtd">
<svg version="1.1" id="Ebene_1" xmlns="http://www.w3.org/2000/svg" xmlns:xlink="http://www.w3.org/1999/xlink" x="0px" y="0px"
	 width="4.032px" height="16.032px" viewBox="9.984 3.984 4.032 16.032" enable-background="new 9.984 3.984 4.032 16.032"
	 xml:space="preserve">
<title>more-vert</title>
<path d="M12,15.984c1.078,0,2.016,0.938,2.016,2.016S13.078,20.016,12,20.016S9.984,19.078,9.984,18S10.922,15.984,12,15.984z
	 M12,9.984c1.078,0,2.016,0.938,2.016,2.016S13.078,14.016,12,14.016S9.984,13.078,9.984,12S10.922,9.984,12,9.984z M12,8.016
	c-1.078,0-2.016-0.938-2.016-2.016S10.922,3.984,12,3.984S14.016,4.922,14.016,6S13.078,8.016,12,8.016z"/>
</svg>
