<?xml version="1.0" encoding="utf-8"?>
<!-- Generator: Adobe Illustrator 15.0.0, SVG Export Plug-In . SVG Version: 6.00 Build 0)  -->
<!DOCTYPE svg PUBLIC "-//W3C//DTD SVG 1.1//EN" "http://www.w3.org/Graphics/SVG/1.1/DTD/svg11.dtd">
<svg version="1.1" id="Ebene_1" xmlns="http://www.w3.org/2000/svg" xmlns:xlink="http://www.w3.org/1999/xlink" x="0px" y="0px"
	 width="17.648px" height="21.5px" viewBox="2.851 1 17.648 21.5" enable-background="new 2.851 1 17.648 21.5"
	 xml:space="preserve">
<title>one-finger-tap</title>
<path fill="none" stroke="#8D8D8D" stroke-miterlimit="10" d="M11.327,6.191c0.488-0.498,0.788-1.179,0.788-1.931
	c0-1.524-1.236-2.76-2.76-2.76s-2.76,1.236-2.76,2.76c0,0.752,0.301,1.434,0.788,1.931V4.26c0-1.082,0.883-1.972,1.971-1.972
	c1.096,0,1.971,0.883,1.971,1.972v1.931H11.327z M13.691,8.195c0-0.649-0.524-1.176-1.183-1.176c-0.653,0-1.183,0.533-1.183,1.176
	v3.555h-0.788V4.266c0-0.657-0.525-1.189-1.183-1.189c-0.653,0-1.183,0.525-1.183,1.189v8.113c-1.623-1.735-3.76-3.642-4.635-2.762
	c-0.857,0.862,1.352,3.236,4.436,8.427c1.39,2.338,3.148,3.955,6.113,3.956c3.266,0,5.913-2.648,5.913-5.913V9.784
	c0-0.656-0.524-1.188-1.183-1.188c-0.653,0-1.184,0.533-1.184,1.188v1.966h-0.787V8.983c0-0.649-0.525-1.176-1.184-1.176
	c-0.653,0-1.184,0.522-1.184,1.176v1.978h-0.787V8.195L13.691,8.195z"/>
</svg>
