<?xml version="1.0" encoding="utf-8"?>
<!-- Generator: Adobe Illustrator 15.0.0, SVG Export Plug-In . SVG Version: 6.00 Build 0)  -->
<!DOCTYPE svg PUBLIC "-//W3C//DTD SVG 1.1//EN" "http://www.w3.org/Graphics/SVG/1.1/DTD/svg11.dtd">
<svg version="1.1" id="Ebene_1" xmlns="http://www.w3.org/2000/svg" xmlns:xlink="http://www.w3.org/1999/xlink" x="0px" y="0px"
	 width="19.809px" height="19.8px" viewBox="2.095 2.1 19.809 19.8" enable-background="new 2.095 2.1 19.809 19.8"
	 xml:space="preserve">
<title>pencilwrench</title>
<path d="M3.333,16.282L15.232,4.383l4.326,4.327L7.66,20.609l-5.565,1.236L3.333,16.282L3.333,16.282z M5.975,16.616l1.351,1.351
	l9.35-9.35l-1.351-1.351L5.975,16.616z M15.749,3.867l1.16-1.16L18.732,2.1l3.115,3.114L21.24,7.038l-1.164,1.156L15.749,3.867z"/>
<path d="M7.172,9.582L7.078,9.611C6.728,9.717,6.362,9.77,5.991,9.77c-2.064,0-3.745-1.681-3.745-3.745
	c0-0.277,0.029-0.55,0.09-0.818L4.689,7.56l2.837-2.837L5.173,2.37c0.269-0.061,0.541-0.09,0.818-0.09
	c2.064,0,3.745,1.681,3.745,3.745c0,0.37-0.053,0.737-0.159,1.087L9.548,7.206l0.957,0.957l-2.373,2.373L7.172,9.582L7.172,9.582z"
	/>
<path d="M18.163,21.9c-2.063,0-3.745-1.682-3.745-3.745c0-0.37,0.053-0.737,0.159-1.087l0.028-0.094l-1.14-1.141l2.373-2.373
	l1.14,1.141l0.095-0.029c0.35-0.106,0.716-0.159,1.087-0.159c2.064,0,3.744,1.681,3.744,3.745c0,0.277-0.028,0.55-0.09,0.818
	l-2.349-2.357l-2.837,2.837l2.354,2.353c-0.27,0.062-0.541,0.09-0.818,0.09L18.163,21.9z"/>
</svg>
